<svg width="250" height="244" viewBox="0 0 250 244" fill="none" xmlns="http://www.w3.org/2000/svg">
<g opacity="0.8">
<path d="M218.75 122C218.75 71.4844 176.758 30.5 125 30.5C73.2422 30.5 31.25 71.4844 31.25 122C31.25 172.516 73.2422 213.5 125 213.5C176.758 213.5 218.75 172.516 218.75 122Z" stroke="#FF9500" stroke-width="10" stroke-miterlimit="10"/>
<path d="M122.198 79.1332L125.001 137.25L127.799 79.1332C127.816 78.7617 127.756 78.3906 127.621 78.0427C127.486 77.6948 127.28 77.3773 127.016 77.1097C126.751 76.842 126.433 76.6299 126.082 76.4862C125.73 76.3425 125.353 76.2702 124.972 76.2738C124.595 76.2773 124.223 76.3548 123.878 76.5016C123.533 76.6485 123.222 76.8617 122.963 77.1286C122.704 77.3955 122.503 77.7105 122.371 78.055C122.24 78.3994 122.181 78.7661 122.198 79.1332Z" stroke="#FF9500" stroke-width="10" stroke-linecap="round" stroke-linejoin="round"/>
<path d="M125 175.332C123.069 175.332 121.18 174.773 119.575 173.726C117.969 172.678 116.717 171.19 115.978 169.448C115.239 167.707 115.045 165.79 115.422 163.941C115.799 162.093 116.729 160.394 118.095 159.061C119.46 157.728 121.2 156.821 123.095 156.453C124.989 156.085 126.953 156.274 128.737 156.995C130.522 157.717 132.047 158.938 133.12 160.506C134.193 162.073 134.766 163.916 134.766 165.801C134.766 168.329 133.737 170.753 131.905 172.54C130.074 174.328 127.59 175.332 125 175.332Z" fill="#FF9500"/>
</g>
</svg>
