<svg width="45" height="45" viewBox="0 0 45 45" fill="none" xmlns="http://www.w3.org/2000/svg">
<path d="M39.3749 27.4597C39.4426 27.3621 39.5076 27.261 39.5744 27.1661C41.2743 24.6397 42.1839 21.6646 42.1874 18.6196C42.2155 9.89209 34.8521 2.8125 25.7466 2.8125C17.8048 2.8125 11.1796 8.21689 9.62744 15.3914C9.3946 16.4547 9.27674 17.5399 9.27588 18.6284C9.27588 27.3647 16.3563 34.6342 25.4618 34.6342C26.9094 34.6342 28.8597 34.1991 29.9293 33.9056C30.9989 33.612 32.0589 33.2244 32.3331 33.1198C32.6073 33.0152 33.0362 32.908 33.3781 33.0064L40.1826 34.9734C40.2424 34.9911 40.3059 34.9925 40.3665 34.9776C40.427 34.9627 40.4825 34.9319 40.5273 34.8884C40.572 34.8449 40.6043 34.7903 40.621 34.7302C40.6377 34.6701 40.638 34.6066 40.6221 34.5463L39.0646 28.6146C38.9565 28.1751 38.9425 28.0925 39.3749 27.4597Z" fill="url(#paint0_linear_1_543)"/>
<path d="M27.4694 36.5081C26.7931 36.6162 26.1099 36.6764 25.4251 36.6882C21.6959 36.6882 18.1741 35.7039 15.3177 33.8582C13.4905 32.7367 11.9044 31.2632 10.6516 29.5234C8.35938 26.485 7.10957 22.6231 7.10957 18.5819C7.10957 18.3068 7.11924 18.0422 7.12891 17.7768C7.13239 17.6985 7.11168 17.6211 7.06959 17.555C7.02751 17.4889 6.96609 17.4374 6.89369 17.4074C6.82128 17.3774 6.74141 17.3705 6.66493 17.3875C6.58844 17.4046 6.51906 17.4447 6.46621 17.5026C4.36171 19.8052 3.0895 22.7467 2.85276 25.8572C2.61601 28.9676 3.42839 32.0677 5.16016 34.6624C5.37725 34.9937 5.50029 35.2495 5.4625 35.42L4.22412 41.771C4.2127 41.8313 4.2173 41.8937 4.23748 41.9517C4.25766 42.0098 4.29271 42.0615 4.33913 42.1018C4.38555 42.1421 4.44173 42.1695 4.50205 42.1813C4.56237 42.1931 4.62473 42.1889 4.68291 42.1691L10.6595 40.0386C10.8407 39.967 11.0343 39.9318 11.2292 39.9351C11.424 39.9384 11.6163 39.9802 11.795 40.058C13.5836 40.7611 15.562 41.1935 17.5404 41.1935C21.3486 41.206 25.0168 39.7592 27.7911 37.1505C27.8484 37.0947 27.8864 37.0221 27.8997 36.9432C27.913 36.8643 27.9009 36.7833 27.8651 36.7117C27.8293 36.6402 27.7716 36.5819 27.7005 36.5453C27.6294 36.5087 27.5485 36.4957 27.4694 36.5081Z" fill="black"/>
<defs>
<linearGradient id="paint0_linear_1_543" x1="25.7317" y1="2.8125" x2="25.7317" y2="34.9878" gradientUnits="userSpaceOnUse">
<stop stop-color="#3969FC"/>
<stop offset="1" stop-color="#2A49FF"/>
</linearGradient>
</defs>
</svg>
