

<svg width="40" height="40" viewBox="0 0 40 40" fill="none" xmlns="http://www.w3.org/2000/svg">
<path d="M10.7694 20C10.7694 19.5178 10.9315 19.0553 11.22 18.7144C11.5086 18.3734 11.8999 18.1818 12.3079 18.1818H26.1543V6.36364C26.1543 2.72727 22.9052 0 20.0004 0H5.38471C3.95707 0.0018048 2.58833 0.672837 1.57883 1.86586C0.569334 3.05888 0.00152717 4.67645 0 6.36364V33.6364C0.00152717 35.3236 0.569334 36.9411 1.57883 38.1341C2.58833 39.3272 3.95707 39.9982 5.38471 40H20.7696C22.1972 39.9982 23.566 39.3272 24.5755 38.1341C25.585 36.9411 26.1528 35.3236 26.1543 33.6364V21.8182H12.3079C11.8999 21.8182 11.5086 21.6266 11.22 21.2857C10.9315 20.9447 10.7694 20.4822 10.7694 20ZM39.5497 18.7148L31.8573 9.62386C31.5664 9.29728 31.1791 9.1179 30.7779 9.12397C30.3768 9.13004 29.9935 9.32108 29.7098 9.65636C29.4261 9.99163 29.2644 10.4446 29.2593 10.9187C29.2541 11.3928 29.4059 11.8506 29.6823 12.1943L34.7477 18.1818H26.1543V21.8182H34.7477L29.6823 27.8057C29.5334 27.9728 29.4143 28.1735 29.3321 28.3959C29.2499 28.6183 29.2062 28.8579 29.2036 29.1005C29.2009 29.3432 29.2394 29.584 29.3168 29.8088C29.3942 30.0336 29.5088 30.2379 29.6541 30.4095C29.7993 30.5811 29.9721 30.7166 30.1623 30.808C30.3525 30.8995 30.5563 30.945 30.7616 30.9419C30.967 30.9387 31.1697 30.8871 31.3579 30.7899C31.546 30.6928 31.7159 30.5521 31.8573 30.3761L39.5497 21.2852C39.838 20.9443 40 20.482 40 20C40 19.518 39.838 19.0557 39.5497 18.7148Z" fill="white"/>
</svg>
