<svg width="26" height="26" viewBox="0 0 26 26" fill="none" xmlns="http://www.w3.org/2000/svg">
<path d="M13 1.625C6.71836 1.625 1.625 6.85039 1.625 13.2895C1.625 18.4438 4.88516 22.8109 9.40469 24.3547C9.46808 24.3685 9.53279 24.3753 9.59766 24.375C10.0191 24.375 10.1816 24.0652 10.1816 23.7961C10.1816 23.5168 10.1715 22.7855 10.1664 21.8105C9.79014 21.8988 9.40521 21.9447 9.01875 21.9477C6.83008 21.9477 6.33242 20.2465 6.33242 20.2465C5.81445 18.9008 5.06797 18.5402 5.06797 18.5402C4.07773 17.8445 5.06289 17.8242 5.13906 17.8242H5.14414C6.28672 17.9258 6.88594 19.0328 6.88594 19.0328C7.45469 20.0281 8.21641 20.3074 8.89687 20.3074C9.34682 20.2984 9.78979 20.1946 10.1969 20.0027C10.2984 19.2512 10.593 18.7383 10.918 18.4438C8.39414 18.1492 5.73828 17.1488 5.73828 12.6801C5.73828 11.4055 6.18008 10.3645 6.90625 9.55195C6.78945 9.25742 6.39844 8.06914 7.01797 6.46445C7.10107 6.44457 7.18648 6.43603 7.27187 6.43906C7.6832 6.43906 8.6125 6.59648 10.1461 7.66289C12.0095 7.14152 13.9803 7.14152 15.8438 7.66289C17.3773 6.59648 18.3066 6.43906 18.718 6.43906C18.8034 6.43603 18.8888 6.44457 18.9719 6.46445C19.5914 8.06914 19.2004 9.25742 19.0836 9.55195C19.8098 10.3695 20.2516 11.4105 20.2516 12.6801C20.2516 17.159 17.5906 18.1441 15.0566 18.4336C15.4629 18.7941 15.8285 19.5051 15.8285 20.5918C15.8285 22.1508 15.8133 23.4102 15.8133 23.791C15.8133 24.0652 15.9707 24.375 16.3922 24.375C16.4604 24.3753 16.5285 24.3685 16.5953 24.3547C21.1199 22.8109 24.375 18.4387 24.375 13.2895C24.375 6.85039 19.2816 1.625 13 1.625Z" fill="white"/>
</svg>
