<svg width="26" height="26" viewBox="0 0 26 26" fill="none" xmlns="http://www.w3.org/2000/svg">
<path d="M24.0277 11.247L23.9129 10.76H13.328V15.24H19.6523C18.9957 18.3579 15.9489 19.9992 13.4601 19.9992C11.6492 19.9992 9.74035 19.2375 8.47691 18.0131C7.81032 17.3568 7.27972 16.5755 6.91549 15.7139C6.55125 14.8523 6.36054 13.9273 6.35426 12.9919C6.35426 11.1048 7.2023 9.2173 8.43629 7.9757C9.67027 6.7341 11.5339 6.03941 13.387 6.03941C15.5091 6.03941 17.03 7.16625 17.5988 7.68016L20.7822 4.51344C19.8484 3.69281 17.2829 1.625 13.2844 1.625C10.1994 1.625 7.24141 2.80668 5.07914 4.96184C2.94531 7.08398 1.84082 10.1527 1.84082 13C1.84082 15.8473 2.8859 18.7627 4.95371 20.9016C7.1632 23.1827 10.2923 24.375 13.5144 24.375C16.446 24.375 19.2248 23.2263 21.2052 21.1423C23.1522 19.0907 24.1592 16.252 24.1592 13.2762C24.1592 12.0235 24.0332 11.2795 24.0277 11.247Z" fill="white"/>
</svg>
