<svg width="40" height="40" viewBox="0 0 40 40" fill="none" xmlns="http://www.w3.org/2000/svg">
<path d="M39.5732 15.5821C38.65 11.2384 36.2018 7.28481 32.6786 4.44999C29.0756 1.56724 24.5982 -0.00227732 19.984 2.48014e-06C14.5447 2.48014e-06 9.46436 2.09553 5.66615 5.90088C1.99563 9.58302 -0.0159758 14.4446 9.55596e-05 19.5866C0.000220519 23.3565 1.10698 27.0434 3.18312 30.1901L3.57152 30.7303L1.42866 39.9999L11.6786 37.4499C11.6786 37.4499 11.884 37.5187 12.0358 37.5767C12.1876 37.6347 13.4938 38.1356 14.8795 38.5231C16.0313 38.8446 18.4277 39.3267 20.3054 39.3267C25.6313 39.3267 30.6045 37.2642 34.308 33.5178C37.9786 29.8008 40 24.8589 40 19.5973C40.0003 18.2476 39.8572 16.9016 39.5732 15.5821ZM11.4286 22.8571C10.8636 22.8571 10.3112 22.6895 9.8413 22.3756C9.37145 22.0616 9.00524 21.6154 8.78899 21.0933C8.57274 20.5713 8.51616 19.9968 8.6264 19.4426C8.73665 18.8883 9.00876 18.3792 9.40834 17.9797C9.80792 17.5801 10.317 17.308 10.8712 17.1977C11.4255 17.0875 11.9999 17.1441 12.522 17.3603C13.0441 17.5766 13.4903 17.9428 13.8043 18.4126C14.1182 18.8825 14.2858 19.4349 14.2858 20C14.2858 20.7577 13.9848 21.4844 13.4489 22.0203C12.9131 22.5561 12.1864 22.8571 11.4286 22.8571ZM20 22.8571C19.435 22.8571 18.8826 22.6895 18.4127 22.3756C17.9429 22.0616 17.5766 21.6154 17.3604 21.0933C17.1441 20.5713 17.0876 19.9968 17.1978 19.4426C17.3081 18.8883 17.5802 18.3792 17.9797 17.9797C18.3793 17.5801 18.8884 17.308 19.4426 17.1977C19.9969 17.0875 20.5714 17.1441 21.0934 17.3603C21.6155 17.5766 22.0617 17.9428 22.3757 18.4126C22.6896 18.8825 22.8572 19.4349 22.8572 20C22.8572 20.7577 22.5562 21.4844 22.0203 22.0203C21.4845 22.5561 20.7578 22.8571 20 22.8571ZM28.5715 22.8571C28.0064 22.8571 27.454 22.6895 26.9841 22.3756C26.5143 22.0616 26.1481 21.6154 25.9318 21.0933C25.7156 20.5713 25.659 19.9968 25.7692 19.4426C25.8795 18.8883 26.1516 18.3792 26.5512 17.9797C26.9507 17.5801 27.4598 17.308 28.0141 17.1977C28.5683 17.0875 29.1428 17.1441 29.6648 17.3603C30.1869 17.5766 30.6331 17.9428 30.9471 18.4126C31.261 18.8825 31.4286 19.4349 31.4286 20C31.4286 20.7577 31.1276 21.4844 30.5918 22.0203C30.0559 22.5561 29.3292 22.8571 28.5715 22.8571Z" fill="white"/>
</svg>
