<svg width="40" height="40" viewBox="0 0 40 40" fill="none" xmlns="http://www.w3.org/2000/svg">
<path d="M26.6664 20C24.9531 20 23.2964 18.9568 21.9998 17.0636C20.739 15.217 19.969 12.7545 19.8331 10.1318C19.6881 7.33408 20.314 4.76136 21.5948 2.88636C22.8756 1.01136 24.6664 0 26.6664 0C28.6523 0 30.4481 1.02954 31.7247 2.9C33.0139 4.78863 33.6414 7.35681 33.4964 10.1307C33.3572 12.7568 32.5881 15.2182 31.3297 17.0625C30.0364 18.9568 28.3806 20 26.6664 20ZM37.6522 40H15.6815C15.3282 40.0025 14.9793 39.8946 14.6615 39.6844C14.3436 39.4742 14.0654 39.1673 13.8482 38.7875C13.6178 38.3757 13.4586 37.8981 13.3827 37.3906C13.3068 36.8831 13.3161 36.3587 13.4098 35.8568C14.1115 32.0147 15.8498 28.8284 18.4365 26.6432C20.7323 24.7045 23.6548 23.6363 26.6664 23.6363C29.7372 23.6363 32.5831 24.6591 34.8922 26.5966C37.4847 28.7704 39.2255 31.975 39.9239 35.8636C40.0165 36.3659 40.0247 36.8903 39.9479 37.3975C39.8712 37.9048 39.7114 38.3819 39.4805 38.7931C39.2635 39.1712 38.9859 39.4766 38.669 39.6858C38.3521 39.8949 38.0043 40.0024 37.6522 40ZM10.9165 20.4545C7.98403 20.4545 5.40571 16.7363 5.16654 12.167C5.04821 9.82613 5.58321 7.66135 6.66654 6.07386C7.7382 4.50227 9.24986 3.63636 10.9165 3.63636C12.5832 3.63636 14.0832 4.50681 15.1607 6.08749C16.2523 7.68749 16.7857 9.84772 16.6607 12.1693C16.4215 16.7375 13.844 20.4545 10.9165 20.4545ZM16.3882 24.0284C14.9223 23.0511 13.0198 22.5625 10.9173 22.5625C8.46236 22.5625 6.07821 23.4352 4.20322 25.0193C2.07739 26.8182 0.647402 29.4375 0.0699049 32.6C-0.0146071 33.0548 -0.0226004 33.5299 0.0465228 33.9896C0.115646 34.4493 0.260096 34.8817 0.469069 35.2545C0.667358 35.6016 0.921387 35.8821 1.21162 36.0744C1.50185 36.2667 1.82056 36.3656 2.14323 36.3636H11.3932C11.5493 36.3636 11.7005 36.2888 11.8203 36.1524C11.9402 36.0159 12.0211 35.8265 12.049 35.617C12.0582 35.5454 12.0698 35.4738 12.0832 35.4034C12.7898 31.5329 14.4457 28.2625 16.8923 25.8784C16.9823 25.7899 17.0547 25.6722 17.1029 25.536C17.1511 25.3998 17.1736 25.2493 17.1684 25.0982C17.1632 24.9471 17.1304 24.8001 17.073 24.6707C17.0157 24.5412 16.9355 24.4333 16.8398 24.3568C16.709 24.2522 16.559 24.142 16.3882 24.0284Z" fill="white"/>
</svg>
