<svg width="40" height="40" viewBox="0 0 40 40" fill="none" xmlns="http://www.w3.org/2000/svg">
<path d="M37.2336 17.7382L37.2211 17.7328L3.85547 3.8937C3.57483 3.77624 3.26945 3.73017 2.96665 3.75962C2.66384 3.78907 2.37306 3.89311 2.12031 4.06245C1.85328 4.23743 1.63393 4.47605 1.48201 4.75684C1.33009 5.03763 1.25036 5.35179 1.25 5.67104V14.5218C1.25015 14.9583 1.40255 15.381 1.68093 15.7171C1.95931 16.0533 2.34623 16.2818 2.775 16.3632L20.9727 19.7281C21.0442 19.7416 21.1087 19.7797 21.1551 19.8358C21.2015 19.8918 21.2269 19.9623 21.2269 20.0351C21.2269 20.1079 21.2015 20.1784 21.1551 20.2344C21.1087 20.2905 21.0442 20.3286 20.9727 20.3421L2.77578 23.707C2.34713 23.7882 1.96023 24.0164 1.68172 24.3523C1.40322 24.6881 1.25055 25.1105 1.25 25.5468V34.3992C1.24979 34.704 1.32528 35.0042 1.46968 35.2726C1.61408 35.5411 1.82288 35.7696 2.07734 35.9375C2.38344 36.1408 2.74266 36.2495 3.11016 36.25C3.36564 36.2497 3.61851 36.1985 3.85391 36.0992L37.2188 22.339L37.2336 22.332C37.6827 22.139 38.0654 21.8185 38.3343 21.4103C38.6032 21.0021 38.7465 20.5239 38.7465 20.0351C38.7465 19.5463 38.6032 19.0682 38.3343 18.6599C38.0654 18.2517 37.6827 17.9312 37.2336 17.7382Z" fill="black"/>
</svg>
