<svg width="40" height="31" viewBox="0 0 40 31" fill="none" xmlns="http://www.w3.org/2000/svg">
<path d="M39.3869 27.8883L30.3191 20.8608C32.5023 18.6084 33.6808 15.8668 33.6768 13.0498C33.6768 5.85417 26.123 0 16.8384 0C7.55377 0 0 5.85417 0 13.0498C0 20.2454 7.55377 26.0995 16.8384 26.0995C20.4733 26.1026 24.0109 25.1893 26.9172 23.4973L35.985 30.5249C36.444 30.8429 37.0426 31.0126 37.6581 30.9993C38.2735 30.9859 38.859 30.7905 39.2943 30.4531C39.7297 30.1157 39.9818 29.662 39.9991 29.185C40.0163 28.708 39.7973 28.2441 39.3869 27.8883ZM4.81097 13.0498C4.81097 11.2062 5.51637 9.40402 6.83796 7.87115C8.15955 6.33827 10.038 5.14355 12.2357 4.43804C14.4334 3.73254 16.8517 3.54795 19.1848 3.90761C21.5179 4.26727 23.661 5.15503 25.3431 6.45864C27.0251 7.76224 28.1706 9.42313 28.6347 11.2313C29.0988 13.0394 28.8606 14.9136 27.9503 16.6168C27.04 18.3201 25.4984 19.7759 23.5205 20.8001C21.5426 21.8243 19.2172 22.371 16.8384 22.371C13.6497 22.3681 10.5927 21.385 8.33795 19.6376C6.0832 17.8902 4.8148 15.521 4.81097 13.0498Z" fill="#16191C"/>
</svg>
