<?xml version="1.0" standalone="no"?>
<!DOCTYPE svg PUBLIC "-//W3C//DTD SVG 20010904//EN"
 "http://www.w3.org/TR/2001/REC-SVG-20010904/DTD/svg10.dtd">
<svg version="1.0" xmlns="http://www.w3.org/2000/svg"
 width="727.000000pt" height="982.000000pt" viewBox="0 0 727.000000 982.000000"
 preserveAspectRatio="xMidYMid meet">

<g transform="translate(0.000000,982.000000) scale(0.100000,-0.100000)"
fill="white" stroke="none">
<path d="M0 4910 l0 -4910 3635 0 3635 0 0 4910 0 4910 -3635 0 -3635 0 0
-4910z m3892 1979 c375 -68 701 -283 909 -598 39 -59 47 -77 38 -92 -21 -41
-52 -23 -109 64 -29 45 -99 127 -154 183 -656 656 -1754 463 -2145 -377 -74
-161 -121 -353 -121 -499 0 -53 -4 -70 -19 -84 -16 -15 -23 -16 -42 -6 -21 12
-22 16 -16 110 35 575 414 1071 957 1253 225 75 460 90 702 46z m-56 -184
c106 -17 236 -60 348 -116 236 -118 455 -350 562 -598 101 -233 123 -533 59
-787 -30 -120 -121 -310 -196 -409 -119 -159 -272 -285 -456 -375 l-92 -45 90
-155 c49 -85 112 -197 141 -247 l52 -93 445 0 446 0 18 51 c34 95 125 161 226
161 137 1 243 -102 244 -237 0 -69 -17 -116 -62 -167 l-31 -35 40 -18 c106
-48 200 -190 208 -314 3 -46 1 -66 -9 -72 -8 -5 -183 -9 -390 -9 -432 0 -406
-6 -395 88 13 116 97 243 197 299 l47 27 -34 44 c-18 24 -38 59 -44 78 l-12
34 -468 0 -469 0 -72 123 c-133 229 -176 302 -208 360 -18 31 -33 57 -35 57
-1 0 -44 -10 -96 -22 -135 -31 -375 -31 -510 0 -51 12 -97 19 -100 14 -4 -4
-44 -72 -90 -152 -115 -200 -191 -331 -207 -357 l-13 -23 -469 0 -469 0 -17
-44 c-9 -24 -30 -58 -46 -76 -17 -18 -29 -33 -27 -35 2 -1 24 -14 50 -29 99
-57 181 -183 194 -298 11 -94 37 -88 -395 -88 -207 0 -382 4 -390 9 -10 6 -12
26 -9 72 8 124 102 266 208 314 l40 18 -31 35 c-44 49 -62 98 -62 162 0 274
378 337 471 78 l17 -48 445 0 445 0 53 93 c29 50 93 162 142 247 l89 155 -92
45 c-131 64 -228 131 -322 224 -105 104 -171 193 -234 315 -94 183 -132 341
-132 551 0 328 111 605 338 841 175 182 414 310 658 353 107 19 299 19 411 1z
m1078 -612 c29 -57 87 -244 81 -262 -8 -26 -35 -35 -52 -18 -11 11 -65 151
-100 259 -16 51 46 69 71 21z m106 -372 c5 -11 13 -67 17 -124 6 -101 5 -105
-16 -117 -19 -9 -26 -9 -40 4 -15 13 -19 39 -24 124 -3 67 -1 112 5 120 16 18
46 15 58 -7z m-2720 -1026 l26 -25 24 25 c26 27 49 32 68 13 18 -18 15 -33
-13 -66 l-24 -29 24 -23 c30 -28 32 -56 5 -70 -23 -12 -53 0 -69 28 -9 16 -11
15 -33 -4 -35 -32 -46 -36 -68 -24 -27 15 -25 38 6 71 l26 28 -26 26 c-29 28
-32 45 -14 63 18 18 39 14 68 -13z m2480 -440 l26 -25 24 25 c26 27 49 32 68
13 19 -19 14 -42 -13 -68 l-25 -24 25 -26 c27 -29 31 -50 13 -68 -18 -18 -36
-15 -64 13 l-25 26 -30 -26 c-36 -29 -42 -30 -63 -9 -21 21 -20 27 11 64 l26
32 -26 24 c-30 27 -33 44 -15 62 18 18 39 14 68 -13z m-1100 -215 c11 -11 20
-30 20 -42 0 -28 -37 -68 -64 -68 -27 0 -66 39 -66 67 0 30 34 63 65 63 14 0
34 -9 45 -20z m-630 -567 c0 -44 3 -54 12 -45 21 21 85 15 102 -10 22 -31 23
-158 1 -158 -12 0 -15 14 -15 68 0 71 -10 92 -44 92 -39 0 -56 -28 -56 -97 0
-49 -3 -63 -15 -63 -13 0 -15 21 -15 128 0 71 3 132 7 135 16 17 23 3 23 -50z
m440 -27 l5 -77 34 35 c19 20 44 36 55 36 17 0 14 -7 -22 -42 l-42 -43 47 -47
c37 -38 43 -48 28 -48 -11 0 -39 19 -62 42 l-43 42 0 -42 c0 -31 -4 -42 -15
-42 -13 0 -15 22 -15 136 0 104 3 135 13 132 7 -3 14 -33 17 -82z m268 -54 c2
-113 0 -132 -13 -132 -13 0 -15 21 -15 136 0 104 3 135 13 132 8 -3 13 -42 15
-136z m82 3 c0 -113 -2 -135 -15 -135 -13 0 -15 21 -15 128 0 71 3 132 7 135
19 19 23 -5 23 -128z m-463 110 c26 -11 33 -19 26 -26 -8 -8 -17 -8 -31 0 -51
27 -117 4 -110 -40 2 -19 12 -27 48 -37 77 -22 95 -35 98 -69 5 -48 -26 -73
-89 -73 -55 0 -89 13 -89 35 0 11 7 11 40 -2 58 -23 105 -8 105 32 0 28 -4 31
-55 43 -68 17 -90 36 -90 77 0 63 71 92 147 60z m298 -5 c0 -8 -8 -16 -17 -18
-13 -2 -18 3 -18 18 0 15 5 20 18 18 9 -2 17 -10 17 -18z m384 -5 c20 -19 8
-29 -17 -16 -32 17 -80 13 -102 -9 -11 -11 -20 -24 -20 -28 0 -18 37 -40 79
-47 76 -12 103 -65 59 -112 -17 -18 -32 -23 -69 -23 -53 0 -102 17 -96 34 3 6
11 9 18 7 86 -25 87 -25 114 -7 47 31 22 61 -73 86 -106 28 -57 151 53 135 22
-3 46 -12 54 -20z m-1419 5 c0 -5 -20 -10 -45 -10 l-45 0 0 -115 c0 -96 -3
-115 -15 -115 -12 0 -15 19 -15 115 l0 115 -45 0 c-25 0 -45 5 -45 10 0 6 42
10 105 10 63 0 105 -4 105 -10z m126 -68 c15 -10 34 -47 34 -66 0 -13 -13 -16
-65 -16 -54 0 -65 -3 -65 -17 0 -42 56 -66 100 -43 12 6 21 7 25 1 8 -14 -28
-31 -68 -31 -54 0 -87 32 -87 84 0 60 29 96 78 96 20 0 42 -4 48 -8z m203 -1
c7 -5 11 -14 7 -20 -5 -8 -12 -7 -25 1 -27 17 -70 2 -82 -29 -23 -62 22 -119
76 -95 17 8 26 8 31 1 9 -16 -15 -29 -54 -29 -47 0 -69 14 -82 55 -23 69 13
125 78 125 20 0 43 -4 51 -9z m701 -81 c0 -73 -3 -90 -15 -90 -12 0 -15 17
-15 90 0 73 3 90 15 90 12 0 15 -17 15 -90z m491 19 l25 -72 25 69 c14 38 32
70 40 72 10 2 22 -20 38 -68 13 -38 26 -69 27 -67 2 1 13 32 26 67 14 40 29
66 40 68 13 3 11 -11 -17 -85 -19 -51 -39 -89 -48 -91 -10 -2 -22 15 -36 53
-12 31 -21 60 -21 65 0 6 -4 10 -10 10 -5 0 -10 -4 -10 -10 0 -5 -9 -34 -21
-65 -28 -75 -44 -69 -80 25 -32 85 -34 100 -16 100 7 0 24 -32 38 -71z m385
60 c4 -8 9 -8 17 0 22 22 27 9 27 -79 0 -73 -3 -90 -15 -90 -8 0 -15 5 -15 12
0 9 -3 9 -12 0 -7 -7 -29 -12 -49 -12 -48 0 -79 36 -79 90 0 55 31 90 80 90
21 0 42 -5 46 -11z m127 -1 c4 -10 7 -10 18 0 7 6 29 12 49 12 51 0 75 -28 75
-90 0 -62 -23 -90 -76 -90 -21 0 -41 6 -46 13 -5 7 -10 -7 -13 -37 -3 -27 -10
-51 -17 -53 -9 -3 -13 31 -15 126 -2 95 0 131 9 131 6 0 13 -6 16 -12z"/>
<path d="M3535 6644 c-400 -43 -744 -279 -915 -629 -219 -448 -134 -955 219
-1306 166 -165 321 -249 571 -311 35 -8 116 -13 225 -13 109 0 190 5 225 13
256 63 436 164 598 336 215 227 323 518 309 831 -24 516 -389 945 -897 1055
-86 19 -262 31 -335 24z m-37 -716 c-2 -14 -82 -84 -228 -200 -124 -99 -236
-187 -249 -197 l-24 -18 247 -197 c136 -108 250 -204 253 -212 7 -19 -14 -44
-38 -44 -10 0 -44 22 -76 48 -32 26 -154 124 -270 216 -143 113 -213 174 -213
187 0 12 66 71 198 176 108 86 226 180 262 208 36 29 74 57 85 63 27 14 57 -3
53 -30z m522 -119 c313 -246 350 -277 350 -298 0 -13 -70 -74 -212 -187 -117
-92 -239 -190 -271 -216 -32 -26 -66 -48 -76 -48 -23 0 -45 25 -38 44 3 8 117
103 252 211 136 108 243 200 239 205 -5 4 -118 94 -251 199 -163 129 -243 199
-243 211 0 16 23 39 40 40 3 0 97 -72 210 -161z"/>
<path d="M1710 3998 c-55 -28 -90 -84 -90 -146 0 -52 18 -89 63 -129 90 -79
235 -31 267 87 15 54 2 104 -37 151 -52 61 -128 75 -203 37z"/>
<path d="M5415 4006 c-45 -20 -82 -66 -96 -117 -40 -151 150 -269 268 -166 45
40 63 77 63 129 -1 117 -129 201 -235 154z"/>
<path d="M1703 3596 c-57 -19 -106 -50 -144 -93 -37 -42 -79 -128 -79 -160 l0
-23 310 0 310 0 -6 28 c-12 54 -52 128 -88 165 -78 79 -207 114 -303 83z"/>
<path d="M5415 3601 c-113 -30 -211 -134 -239 -253 l-6 -28 310 0 c358 0 334
-9 280 105 -34 71 -91 128 -158 157 -49 22 -141 31 -187 19z"/>
<path d="M2686 3404 c-26 -26 -18 -34 34 -34 34 0 50 4 50 13 0 35 -56 50 -84
21z"/>
<path d="M4466 3398 c-47 -66 25 -158 77 -100 10 10 17 34 17 54 0 61 -62 92
-94 46z"/>
<path d="M4696 3404 c-22 -22 -21 -87 2 -107 56 -51 121 36 76 101 -18 26 -56
29 -78 6z"/>
</g>
</svg>
